HIERARCHY
ROOT hip
{
  OFFSET 0 0 0
  CHANNELS 6 Xposition Yposition Zposition Zrotation Yrotation Xrotation
  JOINT abdomen
  {
    OFFSET 0 20.6881 -0.73152
    CHANNELS 3 Zrotation Xrotation Yrotation
    JOINT chest
    {
      OFFSET 0 11.7043 -0.48768
      CHANNELS 3 Zrotation Xrotation Yrotation
      JOINT neck
      {
        OFFSET 0 22.1894 -2.19456
        CHANNELS 3 Zrotation Xrotation Yrotation
        JOINT head
        {
          OFFSET -0.24384 7.07133 1.2192
          CHANNELS 3 Zrotation Xrotation Yrotation
          JOINT leftEye
          {
            OFFSET 4.14528 8.04674 8.04672
            CHANNELS 3 Zrotation Xrotation Yrotation
            End Site
            {
              OFFSET 1 0 0
            }
          }
          JOINT rightEye
          {
            OFFSET -3.6576 8.04674 8.04672
            CHANNELS 3 Zrotation Xrotation Yrotation
            End Site
            {
              OFFSET 1 0 0
            }
          }
        }
      }
      JOINT rCollar
      {
        OFFSET -2.68224 19.2634 -4.8768
        CHANNELS 3 Zrotation Xrotation Yrotation
        JOINT rShldr
        {
          OFFSET -8.77824 -1.95073 1.46304
          CHANNELS 3 Zrotation Xrotation Yrotation
          JOINT rForeArm
          {
            OFFSET -28.1742 -1.7115 0.48768
            CHANNELS 3 Zrotation Xrotation Yrotation
            JOINT rHand
            {
              OFFSET -22.5879 0.773209 7.07136
              CHANNELS 3 Zrotation Xrotation Yrotation
              JOINT rThumb1
              {
                OFFSET -1.2192 -0.487915 3.41376
                CHANNELS 3 Zrotation Xrotation Yrotation
                JOINT rThumb2
                {
                  OFFSET -3.37035 -0.52449 3.41376
                  CHANNELS 3 Zrotation Xrotation Yrotation
                  End Site
                  {
                    OFFSET -1.78271 -1.18214 1.43049
                  }
                }
              }
              JOINT rIndex1
              {
                OFFSET -7.75947 0.938293 5.60832
                CHANNELS 3 Zrotation Xrotation Yrotation
                JOINT rIndex2
                {
                  OFFSET -2.54057 -0.884171 1.56538
                  CHANNELS 3 Zrotation Xrotation Yrotation
                  End Site
                  {
                    OFFSET -1.62519 -0.234802 1.16502
                  }
                }
              }
              JOINT rMid1
              {
                OFFSET -8.24714 1.18213 3.41376
                CHANNELS 3 Zrotation Xrotation Yrotation
                JOINT rMid2
                {
                  OFFSET -3.10165 -0.590103 1.0647
                  CHANNELS 3 Zrotation Xrotation Yrotation
                  End Site
                  {
                    OFFSET -2.48547 -0.328903 0.83742
                  }
                }
              }
              JOINT rRing1
              {
                OFFSET -8.82822 0.546677 1.51678
                CHANNELS 3 Zrotation Xrotation Yrotation
                JOINT rRing2
                {
                  OFFSET -2.60934 -0.819778 -0.0198488
                  CHANNELS 3 Zrotation Xrotation Yrotation
                  End Site
                  {
                    OFFSET -2.33842 -0.294052 0.168128
                  }
                }
              }
              JOINT rPinky1
              {
                OFFSET -8.27202 -0.0477905 -0.4584
                CHANNELS 3 Zrotation Xrotation Yrotation
                JOINT rPinky2
                {
                  OFFSET -1.82734 -0.647385 -0.700984
                  CHANNELS 3 Zrotation Xrotation Yrotation
                  End Site
                  {
                    OFFSET -1.69225 -0.51767 -0.607171
                  }
                }
              }
            }
          }
        }
      }
      JOINT lCollar
      {
        OFFSET 2.68224 19.2634 -4.8768
        CHANNELS 3 Zrotation Xrotation Yrotation
        JOINT lShldr
        {
          OFFSET 8.77824 -1.95073 1.46304
          CHANNELS 3 Zrotation Xrotation Yrotation
          JOINT lForeArm
          {
            OFFSET 28.1742 -1.7115 0.48768
            CHANNELS 3 Zrotation Xrotation Yrotation
            JOINT lHand
            {
              OFFSET 22.5879 0.773209 7.07136
              CHANNELS 3 Zrotation Xrotation Yrotation
              JOINT lThumb1
              {
                OFFSET 1.2192 -0.487915 3.41376
                CHANNELS 3 Zrotation Xrotation Yrotation
                JOINT lThumb2
                {
                  OFFSET 3.37035 -0.52449 3.41376
                  CHANNELS 3 Zrotation Xrotation Yrotation
                  End Site
                  {
                    OFFSET 1.78271 -1.18214 1.43049
                  }
                }
              }
              JOINT lIndex1
              {
                OFFSET 7.75947 0.938293 5.60832
                CHANNELS 3 Zrotation Xrotation Yrotation
                JOINT lIndex2
                {
                  OFFSET 2.54057 -0.884171 1.56538
                  CHANNELS 3 Zrotation Xrotation Yrotation
                  End Site
                  {
                    OFFSET 1.62519 -0.234802 1.16502
                  }
                }
              }
              JOINT lMid1
              {
                OFFSET 8.24714 1.18213 3.41376
                CHANNELS 3 Zrotation Xrotation Yrotation
                JOINT lMid2
                {
                  OFFSET 3.10165 -0.590103 1.0647
                  CHANNELS 3 Zrotation Xrotation Yrotation
                  End Site
                  {
                    OFFSET 2.48547 -0.328903 0.83742
                  }
                }
              }
              JOINT lRing1
              {
                OFFSET 8.82822 0.546677 1.51678
                CHANNELS 3 Zrotation Xrotation Yrotation
                JOINT lRing2
                {
                  OFFSET 2.60934 -0.819778 -0.0198488
                  CHANNELS 3 Zrotation Xrotation Yrotation
                  End Site
                  {
                    OFFSET 2.33842 -0.294052 0.168128
                  }
                }
              }
              JOINT lPinky1
              {
                OFFSET 8.27202 -0.0477905 -0.4584
                CHANNELS 3 Zrotation Xrotation Yrotation
                JOINT lPinky2
                {
                  OFFSET 1.82734 -0.647385 -0.700984
                  CHANNELS 3 Zrotation Xrotation Yrotation
                  End Site
                  {
                    OFFSET 1.69225 -0.51767 -0.607171
                  }
                }
              }
            }
          }
        }
      }
    }
  }
  JOINT rButtock
  {
    OFFSET -8.77824 4.35084 1.2192
    CHANNELS 3 Zrotation Xrotation Yrotation
    JOINT rThigh
    {
      OFFSET 0 -1.70687 -2.19456
      CHANNELS 3 Zrotation Xrotation Yrotation
      JOINT rShin
      {
        OFFSET 0 -36.8199 0.73152
        CHANNELS 3 Zrotation Xrotation Yrotation
        JOINT rFoot
        {
          OFFSET 0.73152 -45.1104 -5.12064
          CHANNELS 3 Zrotation Xrotation Yrotation
          End Site
          {
            OFFSET -1.1221 -3.69964 12.103
          }
        }
      }
    }
  }
  JOINT lButtock
  {
    OFFSET 8.77824 4.35084 1.2192
    CHANNELS 3 Zrotation Xrotation Yrotation
    JOINT lThigh
    {
      OFFSET 0 -1.70687 -2.19456
      CHANNELS 3 Zrotation Xrotation Yrotation
      JOINT lShin
      {
        OFFSET 0 -36.8199 0.73152
        CHANNELS 3 Zrotation Xrotation Yrotation
        JOINT lFoot
        {
          OFFSET -0.73152 -45.1104 -5.12064
          CHANNELS 3 Zrotation Xrotation Yrotation
          End Site
          {
            OFFSET 1.1221 -3.69964 12.103
          }
        }
      }
    }
  }
}
MOTION
Frames:	7
Frame Time:	0.00833333
-97.97851 80.4381 14.4462 -167.56998 -4.837386 176.03798 14.095297 2.7816122 -8.738059 1.2056394 -7.5041122 -2.4177794 -4.23168 26.283789 8.531465 32.3433 -31.389496 28.444498 -0.0 0.0 -0.0 -0.0 0.0 -0.0 -0.0 -0.0 -0.0 -12.592996 -47.5961 39.900192 -28.4415 -36.01761 76.983894 -0.03150211 -5.0594654 -0.7130166 -0.0 0.0 -0.0 -0.0 0.0 -0.0 -0.0 0.0 -0.0 7.7309012 5.4749126 0.41732216 -0.0 0.0 -0.0 2.9055667 0.9650755 0.103008196 -0.0 0.0 -0.0 10.278597 0.731881 0.026273511 -0.0 0.0 -0.0 2.2216635 -0.73345095 -0.208321 -0.0 -0.0 -0.0 -81.10359 53.69621 -10.1652 26.801401 -44.526604 -92.4985 0.071840465 -7.6246114 1.0780771 -0.0 0.0 0.0 -0.0 0.0 0.0 -0.0 0.0 0.0 -7.7309012 5.4749126 -0.41732216 -0.0 0.0 0.0 -2.9055667 0.9650755 -0.103008196 -0.0 0.0 0.0 -10.278597 0.731881 -0.026273511 -0.0 0.0 0.0 -2.2216635 -0.73345095 0.208321 -0.0 0.0 -0.0 20.433996 -14.626303 -3.8034432 0.027190631 32.272804 0.95697516 1.7858078 -18.67828 7.092509 0.0 0.0 0.0 28.741512 -49.53089 9.384118 2.0125058 70.096016 -2.6613603 0.10630161 -1.7076743 -2.4419723
-98.621 80.757805 16.438501 -170.32198 2.4821582 179.43901 11.5808 2.8252952 -8.987947 1.357307 -8.370561 -2.1824648 -4.205848 24.172197 10.654824 30.081497 -29.156204 30.8686 -0.0 0.0 -0.0 -0.0 0.0 -0.0 -0.0 0.0 -0.0 -25.687492 -55.76219 26.184008 -28.346596 -37.797398 80.072296 -0.030889953 -5.0102243 -0.7060417 -0.0 -0.0 -0.0 -0.0 -0.0 -0.0 -0.0 -0.0 -0.0 7.7309012 5.4749126 0.41732216 -0.0 -0.0 -0.0 2.9055667 0.9650755 0.103008196 -0.0 -0.0 -0.0 10.278597 0.731881 0.026273511 -0.0 -0.0 -0.0 2.2216635 -0.73345095 -0.208321 -0.0 0.0 -0.0 -70.726814 57.7677 -23.673298 26.728498 -44.668404 -92.834496 0.012753047 -3.2240114 0.4531617 -0.0 -0.0 -0.0 -0.0 -0.0 -0.0 -0.0 -0.0 -0.0 -7.7309012 5.4749126 -0.41732216 -0.0 -0.0 -0.0 -2.9055667 0.9650755 -0.103008196 -0.0 -0.0 -0.0 -10.278597 0.731881 -0.026273511 -0.0 -0.0 -0.0 -2.2216635 -0.73345095 0.208321 -0.0 0.0 -0.0 17.133104 -18.484692 -3.5832655 -0.05391292 33.392506 0.69960046 4.5767813 -17.957397 14.662392 0.0 0.0 0.0 21.556702 -44.116383 -5.1091723 1.9570916 69.4599 -2.4991188 -0.32450423 2.919285 -12.524799
-100.25011 81.3378 18.2312 -176.31502 14.536716 -175.99698 4.396459 -0.26571867 -8.621521 0.38321835 -9.747933 -2.139519 -3.9463124 20.867792 13.244915 28.180695 -26.505604 34.5866 -0.0 0.0 -0.0 -0.0 0.0 -0.0 -0.0 0.0 -0.0 -31.893095 -62.9982 14.17501 -28.189196 -39.279 82.6305 -0.043379057 -5.933122 -0.83705384 -0.0 0.0 -0.0 -0.0 0.0 -0.0 -0.0 0.0 -0.0 7.7309012 5.4749126 0.41732216 -0.0 0.0 -0.0 2.9055667 0.9650755 0.103008196 -0.0 0.0 -0.0 10.278597 0.731881 0.026273511 -0.0 0.0 -0.0 2.2216635 -0.73345095 -0.208321 -0.0 0.0 -0.0 -63.53439 58.042492 -32.442802 25.694996 -46.8924 -97.3827 0.0069726254 4.1322265 -0.5812696 -0.0 0.0 -0.0 -0.0 0.0 -0.0 -0.0 0.0 -0.0 -7.7309012 5.4749126 -0.41732216 -0.0 0.0 -0.0 -2.9055667 0.9650755 -0.103008196 -0.0 0.0 -0.0 -10.278597 0.731881 -0.026273511 -0.0 0.0 -0.0 -2.2216635 -0.73345095 0.208321 -0.0 0.0 -0.0 13.416996 -25.2473 7.2849174 -0.18897437 35.531605 0.46012607 4.7586856 -19.586988 13.036707 0.0 0.0 0.0 12.667887 -31.931593 -13.412905 0.8870676 56.681194 -1.2438277 -1.4299041 -5.692502 -9.109676
-101.8728 82.6462 19.7705 176.47998 29.8805 -172.46797 -5.689628 -5.212196 -9.723621 0.2204907 -12.713188 -2.1404757 -3.4782398 18.851894 14.8104 26.087801 -26.384604 36.797207 -0.0 0.0 -0.0 -0.0 0.0 -0.0 -0.0 0.0 0.0 -33.814503 -66.49529 1.1991596 -28.007605 -40.374397 84.59538 -0.14603707 -10.830744 -1.5404071 -0.0 0.0 -0.0 -0.0 0.0 -0.0 -0.0 0.0 -0.0 7.7309012 5.4749126 0.41732216 -0.0 0.0 -0.0 2.9055667 0.9650755 0.103008196 -0.0 0.0 -0.0 10.278597 0.731881 0.026273511 -0.0 0.0 -0.0 2.2216635 -0.73345095 -0.208321 -0.0 0.0 0.0 -59.113407 54.390812 -39.317993 24.778904 -48.32069 -100.71599 0.09193576 9.498454 -1.3454803 -0.0 0.0 -0.0 -0.0 0.0 -0.0 -0.0 0.0 -0.0 -7.7309012 5.4749126 -0.41732216 -0.0 0.0 -0.0 -2.9055667 0.9650755 -0.103008196 -0.0 0.0 -0.0 -10.278597 0.731881 -0.026273511 -0.0 0.0 -0.0 -2.2216635 -0.73345095 0.208321 -0.0 0.0 -0.0 6.9798527 -33.2498 12.155109 -0.26043227 37.577103 0.5761967 -3.4637632 -17.880085 -8.656126 0.0 0.0 0.0 5.73536 -24.4084 -5.357066 0.3875539 42.036793 -0.8215884 2.415995 -14.370283 6.0930376
-102.2256 83.798 20.9154 169.59799 44.7314 -172.886 -13.478301 -9.753384 -11.622905 -0.09447547 -13.764798 -2.2218819 -4.188453 16.222284 14.865389 25.4013 -28.096897 37.151295 -0.0 0.0 -0.0 -0.0 0.0 -0.0 -0.0 0.0 -0.0 -34.613895 -65.97709 -16.158796 -27.855505 -41.107285 85.9378 -0.26588413 -14.523296 -2.0864046 -0.0 -0.0 -0.0 -0.0 -0.0 -0.0 -0.0 -0.0 -0.0 7.7309012 5.4749126 0.41732216 -0.0 -0.0 -0.0 2.9055667 0.9650755 0.103008196 -0.0 -0.0 -0.0 10.278597 0.731881 0.026273511 -0.0 -0.0 -0.0 2.2216635 -0.73345095 -0.208321 -0.0 0.0 -0.0 -52.37689 46.4695 -49.826897 24.4196 -48.8354 -101.927986 0.13657995 10.4781 -1.4894294 -0.0 0.0 -0.0 -0.0 0.0 -0.0 -0.0 0.0 -0.0 -7.7309012 5.4749126 -0.41732216 -0.0 0.0 -0.0 -2.9055667 0.9650755 -0.103008196 -0.0 0.0 -0.0 -10.278597 0.731881 -0.026273511 -0.0 0.0 -0.0 -2.2216635 -0.73345095 0.208321 -0.0 0.0 -0.0 -3.057028 -40.602283 -4.035991 -0.31043625 41.54002 0.960729 -10.525997 -14.145406 -28.77969 0.0 0.0 0.0 2.4210634 -19.793308 6.786544 0.18355918 31.478859 -0.65130514 4.152351 -14.41779 11.3611
-100.447296 83.6949 22.061401 163.16098 62.061 -179.26997 -16.386793 -11.647596 -11.883407 -0.5625409 -15.301186 -2.1444306 -5.334794 14.34049 13.564002 26.394695 -27.376507 34.744396 -0.0 0.0 -0.0 -0.0 0.0 -0.0 -0.0 0.0 -0.0 -23.12323 -63.116383 -23.109928 -27.608595 -42.120403 87.8118 -0.2909582 -15.172438 -2.1843784 -0.0 -0.0 -0.0 -0.0 -0.0 -0.0 -0.0 -0.0 -0.0 7.7309012 5.4749126 0.41732216 -0.0 -0.0 -0.0 2.9055667 0.9650755 0.103008196 -0.0 -0.0 -0.0 10.278597 0.731881 0.026273511 -0.0 -0.0 -0.0 2.2216635 -0.73345095 -0.208321 -0.0 0.0 -0.0 -50.1372 36.349995 -58.952404 24.691307 -48.4556 -101.018 0.15924951 10.794208 -1.53677 -0.0 0.0 -0.0 -0.0 0.0 -0.0 -0.0 0.0 -0.0 -7.7309012 5.4749126 -0.41732216 -0.0 0.0 -0.0 -2.9055667 0.9650755 -0.103008196 -0.0 0.0 -0.0 -10.278597 0.731881 -0.026273511 -0.0 0.0 -0.0 -2.2216635 -0.73345095 0.208321 -0.0 0.0 -0.0 -7.703548 -41.974804 -20.360432 -0.47039533 46.738007 1.0387367 -7.536637 -10.873489 -24.106796 0.0 0.0 0.0 3.1051319 -16.029943 19.196661 0.16959818 31.800785 -0.69747394 4.548436 -12.792406 13.503
-97.168304 82.578 23.994001 135.96603 80.00433 152.21904 -18.164999 -15.493894 -13.416591 -1.2505568 -14.164909 -2.391959 -6.692396 15.893804 10.245986 31.161907 -31.591997 30.701508 -0.0 0.0 -0.0 -0.0 0.0 -0.0 -0.0 0.0 0.0 7.341611 -62.046806 -12.3912945 -27.238295 -43.351 90.15849 -0.3860079 -17.704208 -2.5690515 -0.0 -0.0 -0.0 -0.0 -0.0 -0.0 -0.0 -0.0 -0.0 7.7309012 5.4749126 0.41732216 -0.0 -0.0 -0.0 2.9055667 0.9650755 0.103008196 -0.0 -0.0 -0.0 10.278597 0.731881 0.026273511 -0.0 -0.0 -0.0 2.2216635 -0.73345095 -0.208321 -0.0 0.0 0.0 -48.39939 24.932907 -68.1826 24.6099 -48.570686 -101.29399 0.12205847 9.912981 -1.4073735 -0.0 -0.0 -0.0 -0.0 -0.0 -0.0 -0.0 -0.0 -0.0 -7.7309012 5.4749126 -0.41732216 -0.0 -0.0 -0.0 -2.9055667 0.9650755 -0.103008196 -0.0 -0.0 -0.0 -10.278597 0.731881 -0.026273511 -0.0 -0.0 -0.0 -2.2216635 -0.73345095 0.208321 -0.0 0.0 -0.0 -3.0155358 -39.522408 -16.03858 -0.47551376 46.435505 0.88689876 -5.7312875 -14.719995 -15.190598 0.0 0.0 0.0 5.134763 -16.510275 28.313513 0.3722409 42.048492 -0.79852676 3.5069292 -3.512075 18.992592
